<?xml version="1.0" encoding="iso-8859-1"?>
<!-- Uploaded to: SVG Repo, www.svgrepo.com, Generator: SVG Repo Mixer Tools -->
<svg fill="#000000" height="800px" width="800px" version="1.1" id="Layer_1" xmlns="http://www.w3.org/2000/svg" xmlns:xlink="http://www.w3.org/1999/xlink" 
	 viewBox="0 0 512 512" xml:space="preserve">
<g>
	<g>
		<path d="M489.739,0H272.696h-33.391H22.261C13.04,0,5.565,7.475,5.565,16.696v478.609c0,9.22,7.475,16.696,16.696,16.696h467.478
			c9.22,0,16.696-7.475,16.696-16.696V16.696C506.435,7.475,498.96,0,489.739,0z M38.957,33.391h200.348v378.435H38.957V33.391z
			 M473.043,478.609H38.957v-33.391h434.087V478.609z M473.043,411.826H272.696V33.391h200.348V411.826z"/>
	</g>
</g>
<g>
	<g>
		<path d="M322.783,155.826c-9.22,0-16.696,7.475-16.696,16.696v55.652c0,9.22,7.475,16.696,16.696,16.696
			s16.696-7.475,16.696-16.696v-55.652C339.478,163.301,332.003,155.826,322.783,155.826z"/>
	</g>
</g>
<g>
	<g>
		<path d="M189.217,155.826c-9.22,0-16.696,7.475-16.696,16.696v55.652c0,9.22,7.475,16.696,16.696,16.696
			s16.696-7.475,16.696-16.696v-55.652C205.913,163.301,198.438,155.826,189.217,155.826z"/>
	</g>
</g>
</svg>